<?xml version="1.0" ?><svg viewBox="0 0 64 64" xmlns="http://www.w3.org/2000/svg"><defs><style>.cls-1{fill:#e0e9ee;}.cls-2{fill:#d0e1e8;}.cls-3{fill:#748a95;}.cls-4{fill:#617880;}.cls-5{fill:#f0f4f7;}.cls-6{fill:#efc89d;}.cls-7{fill:#172335;}</style></defs><g id="Executioner"><path class="cls-1" d="M26.27,46.34C23.71,47.84,21.59,50,21,52.9a1.53,1.53,0,0,0,1.5,1.82h32A1.52,1.52,0,0,0,56,52.9c-.57-2.92-2.7-5.07-5.27-6.57Z" id="path25222-7-2-37-5"/><path class="cls-2" d="M50.71,46.33H43.29l3.42,2c2.52,1.47,4.6,3.56,5.23,6.39h2.55A1.52,1.52,0,0,0,56,52.9C55.41,50,53.28,47.83,50.71,46.33Z" id="path368518"/><path class="cls-3" d="M31.66,32.84H31.3V43.38l-5,2.95s2.29,1.93,8.21,2.57l5.21.19c8-.23,11-2.76,11-2.76l-7.33-4.28V39.61Z" id="path181675-4"/><path class="cls-4" d="M39.39,37.31v6.74l7.06,4.13a12,12,0,0,0,4.24-1.85l-7.33-4.28V39.61Z" id="path368520"/><path class="cls-3" d="M26.12,25.63C26,24.22,26,22.85,26,21.76a12.48,12.48,0,0,1,25,0c0,2.73-.19,7.18-1.19,9.7-2,5.12-6.33,9.66-11.29,9.66h0a8.81,8.81,0,0,1-4-1l-5.92-5.65Z" id="path25222-7-2-4-2"/><path class="cls-5" d="M23.33,29.57l-.71-6.08L17.83,20a11.79,11.79,0,0,1-6.36,2.51s-.55,6.94,2.21,11.72c2,3.54,8.05,7.62,8.05,7.62A41.66,41.66,0,0,1,23.33,29.57Z" id="path175324-2"/><path class="cls-2" d="M42.92,54.72Q31.48,34.91,20,15.1a2.19,2.19,0,1,0-3.8,2.19L37.85,54.72Z" id="rect175081-7"/><path class="cls-4" d="M19,22l3.8-2.2,3.1,5.36-3.81,2.2Z" id="rect175264-7"/><path class="cls-2" d="M11.47,22.55h-.4c-1.91,0-3.35.64-3,2.54a32.71,32.71,0,0,0,4.08,11,32.89,32.89,0,0,0,7.5,9c1.49,1.21,2.44.46,2.24-1.45-.06-.61-.1-1.21-.12-1.82h0a34,34,0,0,1-6.11-7.8A32.39,32.39,0,0,1,11.47,22.55Z" id="path176968-7"/><path class="cls-6" d="M38.47,31.81a2.58,2.58,0,0,0,2.59-2.58,2.06,2.06,0,0,1,2.06-2.06,3.72,3.72,0,1,0,0-7.44H33.83a3.72,3.72,0,1,0,0,7.44,2.06,2.06,0,0,1,2.06,2.06A2.57,2.57,0,0,0,38.47,31.81Z" id="rect173345-8"/><path class="cls-4" d="M38.47,9.28a13.16,13.16,0,0,0-2,.16A12.49,12.49,0,0,1,47,21.76c0,2.73-.19,7.18-1.19,9.7-1.76,4.42-5.2,8.4-9.29,9.41a8.36,8.36,0,0,0,2,.25c5,0,9.25-4.54,11.29-9.66,1-2.52,1.19-7,1.19-9.7A12.48,12.48,0,0,0,38.47,9.28Z" id="path389683"/><path class="cls-7" d="M51.19,45.47l-6.83-4V40.14a18.68,18.68,0,0,0,6.32-8.31C51.79,29.06,52,24.33,52,21.76A13.48,13.48,0,0,0,25,21.68L20.91,14.6a3.2,3.2,0,0,0-5.54,3.19l1.14,2a10,10,0,0,1-5.42,1.8,4.27,4.27,0,0,0-3.44,1.17A3,3,0,0,0,7,25.26a33.94,33.94,0,0,0,4.2,11.36A33.94,33.94,0,0,0,19,45.93a2.54,2.54,0,0,0,2.79.6c.49-.26,1.29-1,1.09-2.93a37.42,37.42,0,0,1,.84-11.4L29.94,43l-4.19,2.45c-3.19,1.86-5.18,4.36-5.74,7.24a2.51,2.51,0,0,0,2.47,3h32a2.53,2.53,0,0,0,2.48-3C56.37,49.83,54.38,47.33,51.19,45.47Zm-8.33-2.55,5.83,3.4a22.88,22.88,0,0,1-8.46,1.75l-3.54-6.14a9.79,9.79,0,0,0,1.78.19,9.55,9.55,0,0,0,3.89-.85v.78A1,1,0,0,0,42.86,42.92Zm-4.44,10.8-15-26,2.07-1.2L41.19,53.72ZM24.5,24.82,22.43,26l-2.1-3.63,2.07-1.19ZM27,21.76a11.48,11.48,0,0,1,23,0c0,2-.11,6.78-1.12,9.33-1.79,4.5-5.69,9-10.36,9a7.77,7.77,0,0,1-3.27-.76l-8.09-14C27,23.93,27,22.63,27,21.76Zm-9.45-6.6a1.19,1.19,0,0,1,1.64.44l2.22,3.85-2.07,1.2L17.1,16.79A1.19,1.19,0,0,1,17.54,15.16Zm3.27,29.57a1.81,1.81,0,0,1-.57-.35A32,32,0,0,1,13,35.62,32,32,0,0,1,9,24.94c-.1-.62.08-.83.14-.9a2.15,2.15,0,0,1,1.46-.46,34,34,0,0,0,4.14,11,35.09,35.09,0,0,0,6,7.73c0,.5.06,1,.11,1.49A2.4,2.4,0,0,1,20.81,44.73Zm-.08-5.28a34.34,34.34,0,0,1-4.24-5.86,32.32,32.32,0,0,1-3.86-10.14,12.67,12.67,0,0,0,4.88-1.95l4.74,8.2A43.36,43.36,0,0,0,20.73,39.45Zm11.86,8.17a17.71,17.71,0,0,1-4.34-1.3l2.69-1.56ZM22.08,53.53a.53.53,0,0,1-.11-.44,8.76,8.76,0,0,1,4.27-5.57,19.34,19.34,0,0,0,7.63,2.32l2.24,3.88H22.48A.52.52,0,0,1,22.08,53.53Zm32.79,0a.53.53,0,0,1-.41.19h-11L41.35,50c5.29-.39,8.18-1.77,9.35-2.49,2.4,1.54,3.85,3.4,4.28,5.57A.53.53,0,0,1,54.87,53.53Z"/><path class="cls-7" d="M38.47,32.81a3.59,3.59,0,0,0,3.59-3.58,1.05,1.05,0,0,1,1.06-1.06,4.72,4.72,0,1,0,0-9.44H33.83a4.72,4.72,0,1,0,0,9.44,1.06,1.06,0,0,1,1.06,1.06A3.59,3.59,0,0,0,38.47,32.81Zm-4.64-6.64a2.72,2.72,0,1,1,0-5.44h9.29a2.72,2.72,0,1,1,0,5.44,3.06,3.06,0,0,0-3.06,3.06,1.59,1.59,0,0,1-3.17,0A3.07,3.07,0,0,0,33.83,26.17Z"/><path class="cls-7" d="M36.86,24.19A1,1,0,0,0,36.14,23l-2.68-.68A1,1,0,0,0,33,24.23l2.67.68A1,1,0,0,0,36.86,24.19Z"/><path class="cls-7" d="M41.3,24.91,44,24.23a1,1,0,1,0-.49-1.94L40.81,23a1,1,0,0,0-.72,1.22A1,1,0,0,0,41.3,24.91Z"/></g></svg>